<svg width="20" height="20" viewBox="0 0 20 20" fill="none" xmlns="http://www.w3.org/2000/svg">
<path d="M1.36038 11.3604H8.63962V18.6396C8.63962 19.3795 9.24821 20 10 20C10.7518 20 11.3604 19.3795 11.3604 18.6396V11.3604H18.6396C19.3795 11.3604 20 10.7518 20 10C20 9.24821 19.3795 8.63962 18.6396 8.63962H11.3604V1.36038C11.3604 0.620525 10.7518 0 10 0C9.24821 0 8.63962 0.620525 8.63962 1.36038V8.63962H1.36038C0.620525 8.63962 0 9.24821 0 10C0 10.7518 0.620525 11.3604 1.36038 11.3604Z" fill="url(#paint0_linear_4_3198)"/>
<defs>
<linearGradient id="paint0_linear_4_3198" x1="0.384615" y1="10.7692" x2="19.3079" y2="10.6308" gradientUnits="userSpaceOnUse">
<stop stop-color="#CC46FF"/>
<stop offset="1" stop-color="#4659FF"/>
</linearGradient>
</defs>
</svg>
